<?xml version="1.0" encoding="utf-8"?>
<!-- Generator: Adobe Illustrator 27.0.0, SVG Export Plug-In . SVG Version: 6.00 Build 0)  -->
<svg version="1.1" id="Group_261" xmlns="http://www.w3.org/2000/svg" xmlns:xlink="http://www.w3.org/1999/xlink" x="0px" y="0px"
	 viewBox="0 0 179 179" style="enable-background:new 0 0 179 179;" xml:space="preserve">
<style type="text/css">
	.st0{fill:none;}
	.st1{fill:#E8E8E8;}
	.st2{fill:none;stroke:#AAAAAA;stroke-width:2;stroke-linecap:round;stroke-linejoin:round;}
	.st3{fill:none;stroke:#4C4C4C;stroke-width:2;stroke-miterlimit:10;}
	.st4{display:none;}
	
		.st5{display:inline;fill:#EFAF00;stroke:#EFAF00;stroke-width:0.75;stroke-linecap:round;stroke-linejoin:round;stroke-miterlimit:10;}
	.st6{fill:#4C4C4C;}
	.st7{fill:none;stroke:#4C4C4C;stroke-width:2;stroke-linecap:round;stroke-linejoin:round;}
	.st8{fill:none;stroke:#4C4C4C;stroke-width:2;stroke-linejoin:round;}
	.st9{fill:#EFAF00;}
</style>
<circle class="st0" cx="89.5" cy="89.5" r="89.5"/>
<path id="Path_282" class="st1" d="M143.7,72.6c0,19.3-15.7,35-35,35s-35-15.7-35-35s15.7-35,35-35S143.7,53.3,143.7,72.6
	L143.7,72.6"/>
<g>
	<line id="Line_191" class="st2" x1="49" y1="46.2" x2="49" y2="47.8"/>
	<line id="Line_192" class="st2" x1="49" y1="53.1" x2="49" y2="54.7"/>
	<line id="Line_193" class="st2" x1="46.6" y1="50.5" x2="44.7" y2="50.5"/>
	<line id="Line_194" class="st2" x1="53.3" y1="50.5" x2="51.4" y2="50.5"/>
</g>
<g>
	<line id="Line_195" class="st2" x1="136.5" y1="78.7" x2="136.5" y2="82"/>
	<line id="Line_196" class="st2" x1="136.5" y1="93.6" x2="136.5" y2="96.8"/>
	<line id="Line_197" class="st2" x1="131.4" y1="87.8" x2="127.3" y2="87.8"/>
	<line id="Line_198" class="st2" x1="145.8" y1="87.8" x2="141.7" y2="87.8"/>
</g>
<g>
	<line id="Line_199" class="st2" x1="113.3" y1="36.2" x2="111.7" y2="37.8"/>
	<line id="Line_200" class="st2" x1="105.9" y1="43.6" x2="104.2" y2="45.3"/>
	<line id="Line_201" class="st2" x1="106.2" y1="38.2" x2="104.2" y2="36.1"/>
	<line id="Line_202" class="st2" x1="113.4" y1="45.4" x2="111.4" y2="43.3"/>
</g>
<path class="st3" d="M113.1,87.4v26.5c0,2.6-2.1,4.8-4.8,4.8H65.5c-2.6,0-4.8-2.1-4.8-4.8V71c0-2.6,2.1-4.8,4.8-4.8H92"/>
<g class="st4">
	<path class="st5" d="M79.3,95.6l-2.2,6.7h-2.9L81.5,81h3.3l7.3,21.3h-2.9l-2.3-6.7C86.9,95.6,79.3,95.6,79.3,95.6z M86.3,93.5
		l-2.1-6.1c-0.4-1.4-0.8-2.7-1.1-3.9H83c-0.3,1.2-0.6,2.6-1,3.9l-2.1,6.2L86.3,93.5L86.3,93.5z"/>
	<path class="st5" d="M98,81v21.3h-2.8V81H98z"/>
</g>
<g>
	<path class="st6" d="M79.3,95.6l-2.2,6.7h-2.9L81.5,81h3.3l7.3,21.3h-2.9l-2.3-6.7C86.9,95.6,79.3,95.6,79.3,95.6z M86.3,93.5
		l-2.1-6.1c-0.4-1.4-0.8-2.7-1.1-3.9H83c-0.3,1.2-0.6,2.6-1,3.9l-2.1,6.2L86.3,93.5L86.3,93.5z"/>
	<path class="st6" d="M98,81v21.3h-2.8V81H98z"/>
</g>
<polyline class="st7" points="49,107.4 49,96 60.7,96 "/>
<circle class="st7" cx="49" cy="111" r="3.6"/>
<polyline class="st7" points="49,77.2 49,88.6 60.7,88.6 "/>
<circle class="st7" cx="49" cy="73.5" r="3.6"/>
<polyline class="st7" points="125.9,107.4 125.9,96 114.2,96 "/>
<circle class="st7" cx="125.9" cy="111" r="3.6"/>
<polyline class="st7" points="102,131.7 90.6,131.7 90.6,120 "/>
<circle class="st7" cx="105.6" cy="131.7" r="3.6"/>
<polyline class="st7" points="71.8,131.7 83.2,131.7 83.2,120 "/>
<circle class="st7" cx="68.2" cy="131.7" r="3.6"/>
<polyline class="st7" points="83.2,65.2 83.2,53.5 71.8,53.5 "/>
<circle class="st7" cx="68.2" cy="53.5" r="3.6"/>
<circle class="st7" cx="91.1" cy="40.4" r="3.6"/>
<line class="st8" x1="91" y1="66.3" x2="91" y2="43.9"/>
<g>
	<path id="Path_293" class="st9" d="M116.1,66l22.7-19c0,0-2.8-3.3-4.4-3.6c-1.6-0.3-7.1,5.1-7.1,5.1l-15.2,12.9L116.1,66z"/>
	<path id="Path_294" class="st8" d="M119.4,72.7l-15.2,4.1l6.9-14.6l21.6-18.3c1.2-1,3.3-0.5,4.7,1.2l3.6,4.2
		c1.4,1.6,1.6,3.8,0.4,4.8L119.4,72.7z"/>
	<line id="Line_212" class="st8" x1="108.7" y1="75.3" x2="106.4" y2="72.6"/>
	<line id="Line_213" class="st8" x1="120" y1="71.6" x2="112" y2="62.1"/>
	<line id="Line_214" class="st8" x1="116.3" y1="66.6" x2="138.7" y2="47.6"/>
</g>
</svg>
