<svg xmlns="http://www.w3.org/2000/svg" width="40" height="40" viewBox="0 0 40 40">
  <g id="instagram" transform="translate(-175)">
    <rect id="Rectangle_33" data-name="Rectangle 33" width="40" height="40" transform="translate(175)" fill="#fff" opacity="0"/>
    <g id="Group_107" data-name="Group 107" transform="translate(183 8.061)">
      <path id="Path_96" data-name="Path 96" d="M56.761,3.759c3.178,0,3.554.014,4.809.074a6.452,6.452,0,0,1,2.205.421,3.629,3.629,0,0,1,1.367.921,3.808,3.808,0,0,1,.892,1.412,6.936,6.936,0,0,1,.408,2.282c.058,1.292.072,1.681.072,4.963S66.5,17.5,66.442,18.8a6.928,6.928,0,0,1-.408,2.278,3.826,3.826,0,0,1-.892,1.417,3.672,3.672,0,0,1-1.367.917,6.338,6.338,0,0,1-2.205.421c-1.255.06-1.631.074-4.809.074s-3.554-.014-4.8-.074a6.346,6.346,0,0,1-2.21-.421A3.672,3.672,0,0,1,48.38,22.5a3.826,3.826,0,0,1-.892-1.417A6.928,6.928,0,0,1,47.08,18.8c-.058-1.3-.072-1.685-.072-4.968s.013-3.671.072-4.963a6.936,6.936,0,0,1,.408-2.282,3.808,3.808,0,0,1,.892-1.412,3.629,3.629,0,0,1,1.367-.921,6.459,6.459,0,0,1,2.21-.421c1.25-.06,1.627-.074,4.8-.074m0-2.213c-3.232,0-3.635.014-4.9.074a8.535,8.535,0,0,0-2.886.569A5.869,5.869,0,0,0,46.86,3.606a6.1,6.1,0,0,0-1.371,2.181,9.33,9.33,0,0,0-.551,2.981c-.058,1.31-.072,1.727-.072,5.065s.013,3.755.072,5.065a9.388,9.388,0,0,0,.551,2.986A6.127,6.127,0,0,0,46.86,24.06a5.869,5.869,0,0,0,2.111,1.417,8.535,8.535,0,0,0,2.886.569c1.268.06,1.672.074,4.9.074s3.635-.014,4.9-.074a8.589,8.589,0,0,0,2.891-.569,5.892,5.892,0,0,0,2.107-1.417,6.127,6.127,0,0,0,1.371-2.176,9.389,9.389,0,0,0,.551-2.986c.058-1.31.072-1.727.072-5.065s-.013-3.755-.072-5.065a9.331,9.331,0,0,0-.551-2.981,6.1,6.1,0,0,0-1.371-2.181A5.892,5.892,0,0,0,64.555,2.19a8.588,8.588,0,0,0-2.891-.569c-1.268-.06-1.672-.074-4.9-.074" transform="translate(-44.866 -1.546)" fill="#fff"/>
      <path id="Path_97" data-name="Path 97" d="M52.266,2.837a6.214,6.214,0,0,0-6.109,6.31,6.112,6.112,0,1,0,12.218,0,6.214,6.214,0,0,0-6.109-6.31m0,10.407a4.032,4.032,0,0,1-3.967-4.1,3.969,3.969,0,1,1,7.933,0,4.032,4.032,0,0,1-3.967,4.1" transform="translate(-40.371 3.14)" fill="#fff"/>
      <path id="Path_98" data-name="Path 98" d="M51.473,3.937a1.428,1.428,0,1,1-2.855,0,1.428,1.428,0,1,1,2.855,0" transform="translate(-31.802 1.79)" fill="#fff"/>
    </g>
  </g>
</svg>
