<?xml version="1.0" encoding="utf-8"?>
<!-- Generator: Adobe Illustrator 27.0.0, SVG Export Plug-In . SVG Version: 6.00 Build 0)  -->
<svg version="1.1" id="Group_255" xmlns="http://www.w3.org/2000/svg" xmlns:xlink="http://www.w3.org/1999/xlink" x="0px" y="0px"
	 viewBox="0 0 179 179" style="enable-background:new 0 0 179 179;" xml:space="preserve">
<style type="text/css">
	.st0{fill:none;}
	.st1{fill:#E8E8E8;}
	.st2{fill:none;stroke:#AAAAAA;stroke-width:2;stroke-linecap:round;stroke-linejoin:round;}
	.st3{fill:#BFBFBF;}
	.st4{fill:none;stroke:#4C4C4C;stroke-width:2;stroke-linejoin:round;}
	.st5{fill:none;stroke:#4C4C4C;stroke-width:2;stroke-miterlimit:10;}
	.st6{fill:#EFAF00;stroke:#4C4C4C;stroke-width:2;stroke-miterlimit:10;}
</style>
<circle class="st0" cx="89.5" cy="89.5" r="89.5"/>
<g>
	<path id="Path_256" class="st1" d="M99.5,78.6c0,19.3-15.7,35-35,35s-35-15.7-35-35s15.7-35,35-35S99.5,59.3,99.5,78.6"/>
	<line id="Line_151" class="st2" x1="76.4" y1="52.3" x2="76.4" y2="54.4"/>
	<line id="Line_152" class="st2" x1="76.4" y1="61.9" x2="76.4" y2="64"/>
	<line id="Line_153" class="st2" x1="73.1" y1="58.1" x2="70.4" y2="58.1"/>
	<line id="Line_154" class="st2" x1="82.4" y1="58.1" x2="79.7" y2="58.1"/>
	<line id="Line_160" class="st2" x1="61.1" y1="43.7" x2="58.8" y2="46.1"/>
	<line id="Line_161" class="st2" x1="50.4" y1="54.4" x2="48.1" y2="56.8"/>
	<line id="Line_162" class="st2" x1="50.9" y1="46.6" x2="47.9" y2="43.6"/>
	<line id="Line_163" class="st2" x1="61.2" y1="57" x2="58.3" y2="54"/>
	<g>
		<g>
			<path class="st3" d="M146.5,73.7v-6.5l-6.1-1c-0.4-1.6-1-3.1-1.9-4.5l3.6-5.1l-4.6-4.6l-5.1,3.6c-1.4-0.8-2.9-1.5-4.5-1.9l-1-6.1
				h-3.4v15.2c4.3,0,7.8,3.4,7.8,7.6c0,4.3-3.4,7.8-7.6,7.8c-0.1,0-0.1,0-0.2,0v15.2h3.4l1-6.2c1.6-0.4,3.1-1,4.5-1.9l5.1,3.6
				l4.6-4.6l-3.6-5.1c0.8-1.4,1.5-3,1.9-4.6L146.5,73.7z"/>
		</g>
		<path id="Path_258_00000101082328020136636140000002022635587508663481_" class="st4" d="M123.5,93.4h3.4l1-6.2
			c1.6-0.4,3.1-1,4.5-1.9l5.1,3.6l4.6-4.6l-3.6-5.1c0.8-1.4,1.5-3,1.9-4.6l6.1-1v-6.5l-6.1-1c-0.4-1.6-1-3.1-1.9-4.5l3.6-5.1
			l-4.6-4.6l-5.1,3.6c-1.4-0.8-2.9-1.5-4.5-1.9l-1-6.1h-3.4"/>
		<line id="Line_155" class="st4" x1="96.6" y1="70.4" x2="119.4" y2="70.4"/>
		<path id="Path_261" class="st4" d="M117.7,93.2c-2.2-1.8-23.7-20.9,0.2-45.6"/>
		<path id="Path_262" class="st4" d="M102.3,56c5.1,3.1,11,4.8,17,4.9"/>
		<path id="Path_263" class="st4" d="M102.1,85c5.2-3.2,11.1-4.9,17.2-5"/>
		<path id="Path_264" class="st5" d="M119.4,93.4c-12.7,0-22.9-10.3-22.9-22.9c0-12.7,10.3-22.9,22.9-22.9V93.4z"/>
		<path class="st5" d="M123.5,78.2c0.1,0,0.1,0,0.2,0c4.3,0,7.7-3.5,7.6-7.8c0-4.3-3.5-7.7-7.8-7.6"/>
	</g>
	<path class="st5" d="M85,80.4v0.7V80.4H74.9v0.7v-0.7H64.7v0.7v-0.7h-9.5v36.1h9.6H75h10.2h10.2h10.2h10.2H126v-14.3"/>
	<path class="st5" d="M115.5,125.5v-9.1h-10.2v9.1v-9.1H95.1v9.1v-9.1H85v9.1v-9.1H74.9v9.1v-9.1H64.7v9.1v-9.1h-9.5v2.5
		c0,3.7,3,6.7,6.7,6.7H119c3.7,0,6.7-3,6.7-6.7v-2.5h-10.2V125.5z"/>
	<path class="st5" d="M89.3,71.2H61.9c-3.7,0-6.7,3-6.7,6.7v2.4h9.6V72v8.3H75V72v8.3h10.2V72v8.3h7.1"/>
	<path class="st6" d="M85.7,87c-0.5-0.5-1.4-0.1-1.4,0.5v22.3c0,0.7,0.8,1.1,1.4,0.5l12.1-11.2c0.4-0.3,0.4-0.8,0-1.2L85.7,87z"/>
</g>
</svg>
