<svg id="Group_261" data-name="Group 261" xmlns="http://www.w3.org/2000/svg" xmlns:xlink="http://www.w3.org/1999/xlink" width="179" height="179" viewBox="0 0 179 179">
  <defs>
    <clipPath id="clip-path">
      <circle id="Ellipse_37" data-name="Ellipse 37" cx="89.5" cy="89.5" r="89.5" fill="none"/>
    </clipPath>
  </defs>
  <g id="Group_260" data-name="Group 260" clip-path="url(#clip-path)">
    <path id="Path_282" data-name="Path 282" d="M137.54,76.911a35,35,0,1,1-35-35,35,35,0,0,1,35,35" fill="#e8e8e8"/>
    <path id="Path_283" data-name="Path 283" d="M57.585,86.79V81.9A2.219,2.219,0,0,1,59.8,79.682H106.45a2.218,2.218,0,0,1,2.219,2.219v33.82a2.219,2.219,0,0,1-2.219,2.22H82.891" fill="none" stroke="#4c4c4c" stroke-miterlimit="10" stroke-width="2"/>
    <path id="Path_284" data-name="Path 284" d="M51.053,86.79V76.577A2.787,2.787,0,0,1,53.84,73.79h58.574a2.787,2.787,0,0,1,2.787,2.787v44.469a2.786,2.786,0,0,1-2.787,2.786H82.831" fill="none" stroke="#4c4c4c" stroke-miterlimit="10" stroke-width="2"/>
    <line id="Line_188" data-name="Line 188" y2="8" transform="translate(89.081 123.79)" fill="none" stroke="#4c4c4c" stroke-miterlimit="10" stroke-width="2"/>
    <line id="Line_189" data-name="Line 189" x2="18" transform="translate(83.081 131.79)" fill="none" stroke="#4c4c4c" stroke-miterlimit="10" stroke-width="2"/>
    <path id="Path_285" data-name="Path 285" d="M45.081,111.79V94.919A4.129,4.129,0,0,1,49.21,90.79H73.952a4.129,4.129,0,0,1,4.129,4.129v32.742a4.129,4.129,0,0,1-4.129,4.129H69.823" fill="none" stroke="#4c4c4c" stroke-miterlimit="10" stroke-width="2"/>
    <path id="Path_286" data-name="Path 286" d="M62.4,131.79H38.758a2.678,2.678,0,0,1-2.678-2.677V118.467a2.678,2.678,0,0,1,2.678-2.677H62.4a2.677,2.677,0,0,1,2.677,2.677v10.646A2.677,2.677,0,0,1,62.4,131.79" fill="#bfbfbf"/>
    <path id="Rectangle_134" data-name="Rectangle 134" d="M2.677,0H26.322A2.678,2.678,0,0,1,29,2.678V13.323A2.677,2.677,0,0,1,26.323,16H2.677A2.677,2.677,0,0,1,0,13.323V2.677A2.677,2.677,0,0,1,2.677,0Z" transform="translate(36.08 115.79)" fill="none" stroke="#4c4c4c" stroke-linejoin="round" stroke-width="2"/>
    <line id="Line_190" data-name="Line 190" y2="4" transform="translate(40.081 121.79)" fill="none" stroke="#4c4c4c" stroke-linejoin="round" stroke-width="2"/>
    <line id="Line_191" data-name="Line 191" y2="1.525" transform="translate(125.961 80.734)" fill="none" stroke="#aaa" stroke-linecap="round" stroke-linejoin="round" stroke-width="2"/>
    <line id="Line_192" data-name="Line 192" y2="1.525" transform="translate(125.961 87.629)" fill="none" stroke="#aaa" stroke-linecap="round" stroke-linejoin="round" stroke-width="2"/>
    <line id="Line_193" data-name="Line 193" x1="1.912" y1="0.001" transform="translate(121.696 84.968)" fill="none" stroke="#aaa" stroke-linecap="round" stroke-linejoin="round" stroke-width="2"/>
    <line id="Line_194" data-name="Line 194" x1="1.912" y1="0.001" transform="translate(128.362 84.968)" fill="none" stroke="#aaa" stroke-linecap="round" stroke-linejoin="round" stroke-width="2"/>
    <line id="Line_195" data-name="Line 195" y2="3.276" transform="translate(138.757 41.79)" fill="none" stroke="#aaa" stroke-linecap="round" stroke-linejoin="round" stroke-width="2"/>
    <line id="Line_196" data-name="Line 196" y2="3.276" transform="translate(138.757 56.606)" fill="none" stroke="#aaa" stroke-linecap="round" stroke-linejoin="round" stroke-width="2"/>
    <line id="Line_197" data-name="Line 197" x1="4.107" y1="0.002" transform="translate(129.594 50.887)" fill="none" stroke="#aaa" stroke-linecap="round" stroke-linejoin="round" stroke-width="2"/>
    <line id="Line_198" data-name="Line 198" x1="4.107" y1="0.002" transform="translate(143.917 50.887)" fill="none" stroke="#aaa" stroke-linecap="round" stroke-linejoin="round" stroke-width="2"/>
    <line id="Line_199" data-name="Line 199" x1="1.647" y2="1.647" transform="translate(110.071 48.262)" fill="none" stroke="#aaa" stroke-linecap="round" stroke-linejoin="round" stroke-width="2"/>
    <line id="Line_200" data-name="Line 200" x1="1.647" y2="1.647" transform="translate(102.624 55.709)" fill="none" stroke="#aaa" stroke-linecap="round" stroke-linejoin="round" stroke-width="2"/>
    <line id="Line_201" data-name="Line 201" x1="2.064" y1="2.066" transform="translate(102.539 48.228)" fill="none" stroke="#aaa" stroke-linecap="round" stroke-linejoin="round" stroke-width="2"/>
    <line id="Line_202" data-name="Line 202" x1="2.064" y1="2.066" transform="translate(109.739 55.427)" fill="none" stroke="#aaa" stroke-linecap="round" stroke-linejoin="round" stroke-width="2"/>
    <path id="Path_287" data-name="Path 287" d="M134.945,116.174a1,1,0,0,1-.74-.326l-2.91-3.194-2.115,1.928a1.623,1.623,0,0,1-2.618-.64l-4.519-12.269a1.6,1.6,0,0,1,.189-1.488,1.63,1.63,0,0,1,1.333-.7,1.61,1.61,0,0,1,.7.161l11.8,5.633a1.625,1.625,0,0,1,.4,2.666l-2.115,1.928,2.911,3.194a1,1,0,0,1-.066,1.413l-1.573,1.433a1,1,0,0,1-.673.261" fill="#efaf00"/>
    <path id="Path_288" data-name="Path 288" d="M123.565,100.485a.63.63,0,0,1,.271.063l11.8,5.634a.623.623,0,0,1,.151,1.024l-2.854,2.6,3.585,3.933-1.573,1.434-3.585-3.933-2.854,2.6a.624.624,0,0,1-1.006-.246l-4.519-12.27a.626.626,0,0,1,.584-.842m0-2a2.625,2.625,0,0,0-2.46,3.533l4.519,12.27a2.623,2.623,0,0,0,4.23,1.033l1.375-1.254,2.238,2.454a2,2,0,0,0,1.385.651l.093,0a2,2,0,0,0,1.347-.522l1.573-1.434a2,2,0,0,0,.131-2.825l-2.237-2.455,1.376-1.254a2.623,2.623,0,0,0-.638-4.307l-11.8-5.634a2.615,2.615,0,0,0-1.133-.258" fill="#4c4c4c"/>
  </g>
</svg>
