<svg xmlns="http://www.w3.org/2000/svg" width="40" height="40" viewBox="0 0 40 40">
  <g id="linkedin" transform="translate(-242 -0.061)">
    <path id="Path_93" data-name="Path 93" d="M74,0A20,20,0,1,0,94,20,20,20,0,0,0,74,0" transform="translate(188 0.061)" fill="#2d2d2d" opacity="0"/>
    <path id="Path_94" data-name="Path 94" d="M76.115,1.917H57.492a1.618,1.618,0,0,0-1.609,1.63v19.31a1.621,1.621,0,0,0,1.609,1.63H76.115a1.626,1.626,0,0,0,1.618-1.63V3.547a1.623,1.623,0,0,0-1.618-1.63M62.364,21.148H59.119V10.38h3.245ZM60.741,8.908a1.943,1.943,0,1,1,1.878-1.944,1.91,1.91,0,0,1-1.878,1.944M74.5,21.148h-3.24V15.912c0-1.25-.022-2.856-1.685-2.856-1.685,0-1.941,1.361-1.941,2.764v5.329H64.4V10.38H67.5v1.472h.045a3.382,3.382,0,0,1,3.066-1.741c3.281,0,3.886,2.231,3.886,5.13Z" transform="translate(195.117 7.144)" fill="#fff"/>
  </g>
</svg>
