<svg id="Group_259" data-name="Group 259" xmlns="http://www.w3.org/2000/svg" xmlns:xlink="http://www.w3.org/1999/xlink" width="179" height="179" viewBox="0 0 179 179">
  <defs>
    <clipPath id="clip-path">
      <circle id="Ellipse_36" data-name="Ellipse 36" cx="89.5" cy="89.5" r="89.5" fill="none"/>
    </clipPath>
  </defs>
  <g id="Group_258" data-name="Group 258" clip-path="url(#clip-path)">
    <path id="Path_275" data-name="Path 275" d="M126.54,81.911a35,35,0,1,1-35-35,35,35,0,0,1,35,35" fill="#e8e8e8"/>
    <line id="Line_176" data-name="Line 176" y2="1.525" transform="translate(58.961 62.734)" fill="none" stroke="#aaa" stroke-linecap="round" stroke-linejoin="round" stroke-width="2"/>
    <line id="Line_177" data-name="Line 177" y2="1.525" transform="translate(58.961 69.629)" fill="none" stroke="#aaa" stroke-linecap="round" stroke-linejoin="round" stroke-width="2"/>
    <line id="Line_178" data-name="Line 178" x1="1.912" y1="0.001" transform="translate(54.696 66.968)" fill="none" stroke="#aaa" stroke-linecap="round" stroke-linejoin="round" stroke-width="2"/>
    <line id="Line_179" data-name="Line 179" x1="1.912" y1="0.001" transform="translate(61.362 66.968)" fill="none" stroke="#aaa" stroke-linecap="round" stroke-linejoin="round" stroke-width="2"/>
    <line id="Line_180" data-name="Line 180" y2="3.276" transform="translate(126.757 63.79)" fill="none" stroke="#aaa" stroke-linecap="round" stroke-linejoin="round" stroke-width="2"/>
    <line id="Line_181" data-name="Line 181" y2="3.276" transform="translate(126.757 78.606)" fill="none" stroke="#aaa" stroke-linecap="round" stroke-linejoin="round" stroke-width="2"/>
    <line id="Line_182" data-name="Line 182" x1="4.107" y1="0.002" transform="translate(117.594 72.887)" fill="none" stroke="#aaa" stroke-linecap="round" stroke-linejoin="round" stroke-width="2"/>
    <line id="Line_183" data-name="Line 183" x1="4.107" y1="0.002" transform="translate(131.917 72.887)" fill="none" stroke="#aaa" stroke-linecap="round" stroke-linejoin="round" stroke-width="2"/>
    <line id="Line_184" data-name="Line 184" x1="1.647" y2="1.647" transform="translate(75.071 45.262)" fill="none" stroke="#aaa" stroke-linecap="round" stroke-linejoin="round" stroke-width="2"/>
    <line id="Line_185" data-name="Line 185" x1="1.647" y2="1.647" transform="translate(67.624 52.709)" fill="none" stroke="#aaa" stroke-linecap="round" stroke-linejoin="round" stroke-width="2"/>
    <line id="Line_186" data-name="Line 186" x1="2.064" y1="2.066" transform="translate(67.539 45.228)" fill="none" stroke="#aaa" stroke-linecap="round" stroke-linejoin="round" stroke-width="2"/>
    <line id="Line_187" data-name="Line 187" x1="2.064" y1="2.066" transform="translate(74.739 52.427)" fill="none" stroke="#aaa" stroke-linecap="round" stroke-linejoin="round" stroke-width="2"/>
    <path id="Path_276" data-name="Path 276" d="M120.365,131.955v-1.961H93.946v1.961H88.291v-1.961H61.872v1.961H56.217V126.3h5.655v1.961H80.727A31.993,31.993,0,0,1,59.179,98.9H57.2V93.243h5.656V98.9h-1.94a30.185,30.185,0,0,0,27.378,29.22V126.3h5.655v1.821a30.16,30.16,0,0,0,27.382-29.361h-1.943V93.1h5.656v5.657h-1.978a31.972,31.972,0,0,1-21.552,29.5h18.854V126.3h5.656v5.656Zm3.922-3.922H122.1v2.187h2.188Zm-32.074,0H90.025v2.187h2.188Zm-32.074,0H57.951v2.187h2.188Zm.98-33.055H58.931v2.188h2.188Zm62.188-.141h-2.188v2.187h2.188Z" fill="#4c4c4c"/>
    <path id="Path_277" data-name="Path 277" d="M124.941,93.2v5.457h-1.976a31.929,31.929,0,0,1-22.071,29.7h19.571V126.4h5.456v5.456h-5.456v-1.961H93.847v1.961H88.391v-1.961H61.772v1.961H56.316V126.4h5.456v1.961H81.343A31.929,31.929,0,0,1,59.276,98.8H57.3V93.343h5.456V98.8H60.811a30.356,30.356,0,0,0,27.58,29.43V126.4h5.456v1.83a30.355,30.355,0,0,0,27.583-29.57h-1.945V93.2Zm-3.922,3.922h2.388V94.737h-2.388Zm-62.188.142h2.387V94.878H58.831ZM122,130.32h2.387v-2.387H122Zm-32.075,0h2.387v-2.387H89.925Zm-32.074,0h2.387v-2.387H57.851ZM125.141,93h-5.856v5.857h1.941A30.062,30.062,0,0,1,94.047,128.01V126.2H88.191v1.811A30.085,30.085,0,0,1,61.016,99h1.937V93.143H57.1V99h1.984a32.1,32.1,0,0,0,21.064,29.16H61.972V126.2H56.116v5.856h5.856v-1.961H88.191v1.961h5.856v-1.961h26.218v1.961h5.856V126.2h-5.856v1.961H102.093a32.07,32.07,0,0,0,21.067-29.3h1.981V93Zm-3.922,1.935h1.988v1.987h-1.988Zm-62.188.141h1.987v1.988H59.031ZM122.2,128.133h1.987v1.987H122.2Zm-32.075,0h1.987v1.987H90.125Zm-32.074,0h1.987v1.987H58.051Z" fill="#4c4c4c"/>
    <path id="Path_278" data-name="Path 278" d="M79.6,66.855l2,7h19l3-8-24,.677" fill="#efaf00"/>
    <path id="Path_279" data-name="Path 279" d="M79.6,66.855l2,7h19l3-8-24,.677" fill="none" stroke="#4c4c4c" stroke-miterlimit="10" stroke-width="0.2"/>
    <path id="Path_280" data-name="Path 280" d="M88.889,117.651a1.685,1.685,0,0,1-1.552-1.039L76.746,87.86a2.224,2.224,0,0,1,.081-1.611L82.6,74.261h-.86a1.982,1.982,0,0,1-1.882-1.477l-1.45-5.932a1.495,1.495,0,0,1,1.484-1.889h22.456a1.494,1.494,0,0,1,1.483,1.889l-1.45,5.931a1.983,1.983,0,0,1-1.882,1.478h-.859l5.773,11.99a2.224,2.224,0,0,1,.08,1.607l-10.6,28.752a1.682,1.682,0,0,1-1.552,1.041ZM78.388,87a.608.608,0,0,0-.013.262l10.571,28.7,1.291-.044V91.933a4.738,4.738,0,1,1,1.734.006v23.977h1.366L103.864,87.26A.6.6,0,0,0,103.85,87L97.715,74.261H84.523Zm12.731-2.728a3.006,3.006,0,1,0,3,3,3.009,3.009,0,0,0-3-3m-9.578-11.9a.281.281,0,0,0,.2.155H100.5a.271.271,0,0,0,.2-.155l1.388-5.673H80.154Z" fill="#4c4c4c"/>
    <path id="Path_281" data-name="Path 281" d="M102.347,65.063a1.395,1.395,0,0,1,1.386,1.766l-1.45,5.931a1.88,1.88,0,0,1-1.785,1.4H99.48l5.842,12.134a2.113,2.113,0,0,1,.076,1.529L94.8,116.576a1.581,1.581,0,0,1-1.459.975H88.889a1.585,1.585,0,0,1-1.459-.974L76.839,87.826a2.119,2.119,0,0,1,.077-1.533l5.842-12.132H81.739a1.881,1.881,0,0,1-1.785-1.4L78.5,66.829a1.394,1.394,0,0,1,1.386-1.766ZM81.739,72.627H100.5a.369.369,0,0,0,.295-.232l1.417-5.8H80.028l1.417,5.8a.366.366,0,0,0,.294.232m7.155,43.39h1.443V91.85a4.639,4.639,0,1,1,1.534.005v24.162h1.466a.14.14,0,0,0,.039-.017l10.582-28.705a.669.669,0,0,0-.018-.332l-6.163-12.8H84.461L78.3,86.961a.662.662,0,0,0-.018.336L88.853,116a.12.12,0,0,0,.041.018m2.225-25.63a3.105,3.105,0,1,0-3.106-3.106,3.109,3.109,0,0,0,3.106,3.106m11.228-25.524H79.89a1.594,1.594,0,0,0-1.58,2.013l1.45,5.931a2.085,2.085,0,0,0,1.979,1.554h.7l-5.7,11.845a2.3,2.3,0,0,0-.084,1.688l10.591,28.752a1.788,1.788,0,0,0,1.646,1.1H93.34a1.787,1.787,0,0,0,1.647-1.106l10.6-28.752a2.329,2.329,0,0,0-.084-1.685L99.8,74.361h.7a2.086,2.086,0,0,0,1.98-1.554l1.449-5.931a1.593,1.593,0,0,0-1.58-2.013M81.742,72.427a.21.21,0,0,1-.1-.083L80.282,66.8h21.673l-1.356,5.55a.221.221,0,0,1-.1.079H81.742Zm2.844,1.934H97.651l6.109,12.688a.6.6,0,0,1,.007.186L93.23,115.817H92.071V92.022a4.84,4.84,0,1,0-1.934-.006v23.8H89L78.468,87.228a.575.575,0,0,1,.013-.187Zm6.533,15.826a2.905,2.905,0,1,1,2.9-2.906,2.909,2.909,0,0,1-2.9,2.906" fill="#4c4c4c"/>
  </g>
</svg>
